solid 
 facet normal  0.000000e+00 -1.000000e+00  0.000000e+00
   outer loop
     vertex -1.055401e-01 -1.700000e+00  2.937283e-01
     vertex -1.017602e-01 -1.700000e+00  2.841187e-01
     vertex -9.710751e-02 -1.700000e+00  2.749000e-01
   endloop
 endfacet
 facet normal  0.000000e+00 -1.000000e+00  0.000000e+00
   outer loop
     vertex -1.113579e-01 -1.700000e+00  3.240657e-01
     vertex -1.084148e-01 -1.700000e+00  3.036464e-01
     vertex -1.055401e-01 -1.700000e+00  2.937283e-01
   endloop
 endfacet
 facet normal  0.000000e+00 -1.000000e+00  0.000000e+00
   outer loop
     vertex -1.113579e-01 -1.700000e+00  3.240657e-01
     vertex -1.103596e-01 -1.700000e+00  3.137878e-01
     vertex -1.084148e-01 -1.700000e+00  3.036464e-01
   endloop
 endfacet
 facet normal  0.000000e+00 -1.000000e+00  0.000000e+00
   outer loop
     vertex -1.113579e-01 -1.700000e+00  3.240657e-01
     vertex -1.055401e-01 -1.700000e+00  2.937283e-01
     vertex -9.710751e-02 -1.700000e+00  2.749000e-01
   endloop
 endfacet
 facet normal  0.000000e+00 -1.000000e+00  0.000000e+00
   outer loop
     vertex  1.055401e-01 -1.700000e+00  2.937283e-01
     vertex  9.710751e-02 -1.700000e+00  2.749000e-01
     vertex  1.017602e-01 -1.700000e+00  2.841187e-01
   endloop
 endfacet
 facet normal  0.000000e+00 -1.000000e+00  0.000000e+00
   outer loop
     vertex  1.104886e-01 -1.700000e+00  3.446778e-01
     vertex  1.113579e-01 -1.700000e+00  3.240657e-01
     vertex  1.114010e-01 -1.700000e+00  3.343919e-01
   endloop
 endfacet
 facet normal  0.000000e+00 -1.000000e+00 -0.000000e+00
   outer loop
     vertex  1.104886e-01 -1.700000e+00  3.446778e-01
     vertex  1.103596e-01 -1.700000e+00  3.137878e-01
     vertex  1.113579e-01 -1.700000e+00  3.240657e-01
   endloop
 endfacet
 facet normal  0.000000e+00 -1.000000e+00  0.000000e+00
   outer loop
     vertex  1.104886e-01 -1.700000e+00  3.446778e-01
     vertex  1.084148e-01 -1.700000e+00  3.036464e-01
     vertex  1.103596e-01 -1.700000e+00  3.137878e-01
   endloop
 endfacet
 facet normal  0.000000e+00 -1.000000e+00  0.000000e+00
   outer loop
     vertex  1.104886e-01 -1.700000e+00  3.446778e-01
     vertex  1.055401e-01 -1.700000e+00  2.937283e-01
     vertex  1.084148e-01 -1.700000e+00  3.036464e-01
   endloop
 endfacet
 facet normal  0.000000e+00 -1.000000e+00  0.000000e+00
   outer loop
     vertex  1.104886e-01 -1.700000e+00  3.446778e-01
     vertex  9.710751e-02 -1.700000e+00  2.749000e-01
     vertex  1.055401e-01 -1.700000e+00  2.937283e-01
   endloop
 endfacet
 facet normal  0.000000e+00 -1.000000e+00  0.000000e+00
   outer loop
     vertex  6.315952e-02 -1.700000e+00  4.215805e-01
     vertex  5.438797e-02 -1.700000e+00  4.270295e-01
     vertex  4.514993e-02 -1.700000e+00  4.316437e-01
   endloop
 endfacet
 facet normal  0.000000e+00 -1.000000e+00 -0.000000e+00
   outer loop
     vertex  7.900687e-02 -1.700000e+00  4.083716e-01
     vertex -9.710751e-02 -1.700000e+00  2.749000e-01
     vertex  9.710751e-02 -1.700000e+00  2.749000e-01
   endloop
 endfacet
 facet normal  0.000000e+00 -1.000000e+00  0.000000e+00
   outer loop
     vertex  7.900687e-02 -1.700000e+00  4.083716e-01
     vertex -1.114010e-01 -1.700000e+00  3.343919e-01
     vertex -1.113579e-01 -1.700000e+00  3.240657e-01
   endloop
 endfacet
 facet normal  0.000000e+00 -1.000000e+00  0.000000e+00
   outer loop
     vertex  7.900687e-02 -1.700000e+00  4.083716e-01
     vertex -1.104886e-01 -1.700000e+00  3.446778e-01
     vertex -1.114010e-01 -1.700000e+00  3.343919e-01
   endloop
 endfacet
 facet normal  0.000000e+00 -1.000000e+00  0.000000e+00
   outer loop
     vertex  7.900687e-02 -1.700000e+00  4.083716e-01
     vertex -1.086286e-01 -1.700000e+00  3.548352e-01
     vertex -1.104886e-01 -1.700000e+00  3.446778e-01
   endloop
 endfacet
 facet normal  0.000000e+00 -1.000000e+00  0.000000e+00
   outer loop
     vertex  7.900687e-02 -1.700000e+00  4.083716e-01
     vertex  9.710751e-02 -1.700000e+00  2.749000e-01
     vertex  1.104886e-01 -1.700000e+00  3.446778e-01
   endloop
 endfacet
 facet normal  0.000000e+00 -1.000000e+00  0.000000e+00
   outer loop
     vertex  7.900687e-02 -1.700000e+00  4.083716e-01
     vertex -1.058368e-01 -1.700000e+00  3.647769e-01
     vertex -1.086286e-01 -1.700000e+00  3.548352e-01
   endloop
 endfacet
 facet normal  0.000000e+00 -1.000000e+00  0.000000e+00
   outer loop
     vertex  7.900687e-02 -1.700000e+00  4.083716e-01
     vertex -1.021373e-01 -1.700000e+00  3.744178e-01
     vertex -1.058368e-01 -1.700000e+00  3.647769e-01
   endloop
 endfacet
 facet normal  0.000000e+00 -1.000000e+00  0.000000e+00
   outer loop
     vertex  7.900687e-02 -1.700000e+00  4.083716e-01
     vertex -9.756179e-02 -1.700000e+00  3.836750e-01
     vertex -1.021373e-01 -1.700000e+00  3.744178e-01
   endloop
 endfacet
 facet normal  0.000000e+00 -1.000000e+00  0.000000e+00
   outer loop
     vertex  7.900687e-02 -1.700000e+00  4.083716e-01
     vertex -9.214945e-02 -1.700000e+00  3.924692e-01
     vertex -9.756179e-02 -1.700000e+00  3.836750e-01
   endloop
 endfacet
 facet normal  0.000000e+00 -1.000000e+00  0.000000e+00
   outer loop
     vertex  7.900687e-02 -1.700000e+00  4.083716e-01
     vertex -8.594675e-02 -1.700000e+00  4.007250e-01
     vertex -9.214945e-02 -1.700000e+00  3.924692e-01
   endloop
 endfacet
 facet normal -0.000000e+00 -1.000000e+00  0.000000e+00
   outer loop
     vertex  7.900687e-02 -1.700000e+00  4.083716e-01
     vertex -7.900687e-02 -1.700000e+00  4.083716e-01
     vertex -8.594675e-02 -1.700000e+00  4.007250e-01
   endloop
 endfacet
 facet normal  0.000000e+00 -1.000000e+00  0.000000e+00
   outer loop
     vertex  7.900687e-02 -1.700000e+00  4.083716e-01
     vertex -7.138935e-02 -1.700000e+00  4.153433e-01
     vertex -7.900687e-02 -1.700000e+00  4.083716e-01
   endloop
 endfacet
 facet normal  0.000000e+00 -1.000000e+00  0.000000e+00
   outer loop
     vertex  7.900687e-02 -1.700000e+00  4.083716e-01
     vertex -6.315952e-02 -1.700000e+00  4.215805e-01
     vertex -7.138935e-02 -1.700000e+00  4.153433e-01
   endloop
 endfacet
 facet normal  0.000000e+00 -1.000000e+00  0.000000e+00
   outer loop
     vertex  7.900687e-02 -1.700000e+00  4.083716e-01
     vertex -5.438797e-02 -1.700000e+00  4.270295e-01
     vertex -6.315952e-02 -1.700000e+00  4.215805e-01
   endloop
 endfacet
 facet normal  0.000000e+00 -1.000000e+00  0.000000e+00
   outer loop
     vertex  7.900687e-02 -1.700000e+00  4.083716e-01
     vertex -4.514993e-02 -1.700000e+00  4.316437e-01
     vertex -5.438797e-02 -1.700000e+00  4.270295e-01
   endloop
 endfacet
 facet normal  0.000000e+00 -1.000000e+00  0.000000e+00
   outer loop
     vertex  7.900687e-02 -1.700000e+00  4.083716e-01
     vertex -3.552463e-02 -1.700000e+00  4.353834e-01
     vertex -4.514993e-02 -1.700000e+00  4.316437e-01
   endloop
 endfacet
 facet normal  0.000000e+00 -1.000000e+00  0.000000e+00
   outer loop
     vertex  7.900687e-02 -1.700000e+00  4.083716e-01
     vertex -2.559464e-02 -1.700000e+00  4.382166e-01
     vertex -3.552463e-02 -1.700000e+00  4.353834e-01
   endloop
 endfacet
 facet normal  0.000000e+00 -1.000000e+00  0.000000e+00
   outer loop
     vertex  7.900687e-02 -1.700000e+00  4.083716e-01
     vertex -1.544513e-02 -1.700000e+00  4.401191e-01
     vertex -2.559464e-02 -1.700000e+00  4.382166e-01
   endloop
 endfacet
 facet normal  0.000000e+00 -1.000000e+00  0.000000e+00
   outer loop
     vertex  7.900687e-02 -1.700000e+00  4.083716e-01
     vertex -5.163137e-03 -1.700000e+00  4.410744e-01
     vertex -1.544513e-02 -1.700000e+00  4.401191e-01
   endloop
 endfacet
 facet normal  0.000000e+00 -1.000000e+00  0.000000e+00
   outer loop
     vertex  7.900687e-02 -1.700000e+00  4.083716e-01
     vertex  5.163137e-03 -1.700000e+00  4.410744e-01
     vertex -5.163137e-03 -1.700000e+00  4.410744e-01
   endloop
 endfacet
 facet normal  0.000000e+00 -1.000000e+00  0.000000e+00
   outer loop
     vertex  7.900687e-02 -1.700000e+00  4.083716e-01
     vertex  1.544513e-02 -1.700000e+00  4.401191e-01
     vertex  5.163137e-03 -1.700000e+00  4.410744e-01
   endloop
 endfacet
 facet normal  0.000000e+00 -1.000000e+00  0.000000e+00
   outer loop
     vertex  7.900687e-02 -1.700000e+00  4.083716e-01
     vertex  2.559464e-02 -1.700000e+00  4.382166e-01
     vertex  1.544513e-02 -1.700000e+00  4.401191e-01
   endloop
 endfacet
 facet normal  0.000000e+00 -1.000000e+00  0.000000e+00
   outer loop
     vertex  7.900687e-02 -1.700000e+00  4.083716e-01
     vertex  3.552463e-02 -1.700000e+00  4.353834e-01
     vertex  2.559464e-02 -1.700000e+00  4.382166e-01
   endloop
 endfacet
 facet normal  0.000000e+00 -1.000000e+00  0.000000e+00
   outer loop
     vertex  7.900687e-02 -1.700000e+00  4.083716e-01
     vertex  4.514993e-02 -1.700000e+00  4.316437e-01
     vertex  3.552463e-02 -1.700000e+00  4.353834e-01
   endloop
 endfacet
 facet normal  0.000000e+00 -1.000000e+00  0.000000e+00
   outer loop
     vertex  7.900687e-02 -1.700000e+00  4.083716e-01
     vertex  7.138935e-02 -1.700000e+00  4.153433e-01
     vertex  6.315952e-02 -1.700000e+00  4.215805e-01
   endloop
 endfacet
 facet normal  0.000000e+00 -1.000000e+00  0.000000e+00
   outer loop
     vertex  7.900687e-02 -1.700000e+00  4.083716e-01
     vertex  9.214945e-02 -1.700000e+00  3.924692e-01
     vertex  8.594675e-02 -1.700000e+00  4.007250e-01
   endloop
 endfacet
 facet normal  0.000000e+00 -1.000000e+00  0.000000e+00
   outer loop
     vertex  7.900687e-02 -1.700000e+00  4.083716e-01
     vertex  6.315952e-02 -1.700000e+00  4.215805e-01
     vertex  4.514993e-02 -1.700000e+00  4.316437e-01
   endloop
 endfacet
 facet normal  0.000000e+00 -1.000000e+00  0.000000e+00
   outer loop
     vertex  7.900687e-02 -1.700000e+00  4.083716e-01
     vertex  9.756179e-02 -1.700000e+00  3.836750e-01
     vertex  9.214945e-02 -1.700000e+00  3.924692e-01
   endloop
 endfacet
 facet normal  0.000000e+00 -1.000000e+00  0.000000e+00
   outer loop
     vertex  7.900687e-02 -1.700000e+00  4.083716e-01
     vertex  1.021373e-01 -1.700000e+00  3.744178e-01
     vertex  9.756179e-02 -1.700000e+00  3.836750e-01
   endloop
 endfacet
 facet normal  0.000000e+00 -1.000000e+00  0.000000e+00
   outer loop
     vertex  7.900687e-02 -1.700000e+00  4.083716e-01
     vertex  1.058368e-01 -1.700000e+00  3.647769e-01
     vertex  1.021373e-01 -1.700000e+00  3.744178e-01
   endloop
 endfacet
 facet normal  0.000000e+00 -1.000000e+00  0.000000e+00
   outer loop
     vertex  7.900687e-02 -1.700000e+00  4.083716e-01
     vertex  1.086286e-01 -1.700000e+00  3.548352e-01
     vertex  1.058368e-01 -1.700000e+00  3.647769e-01
   endloop
 endfacet
 facet normal  0.000000e+00 -1.000000e+00  0.000000e+00
   outer loop
     vertex  7.900687e-02 -1.700000e+00  4.083716e-01
     vertex  1.104886e-01 -1.700000e+00  3.446778e-01
     vertex  1.086286e-01 -1.700000e+00  3.548352e-01
   endloop
 endfacet
 facet normal  0.000000e+00 -1.000000e+00  0.000000e+00
   outer loop
     vertex  7.900687e-02 -1.700000e+00  4.083716e-01
     vertex -1.113579e-01 -1.700000e+00  3.240657e-01
     vertex -9.710751e-02 -1.700000e+00  2.749000e-01
   endloop
 endfacet
endsolid
